<svg width="121" height="71" viewBox="0 0 121 71" fill="none" xmlns="http://www.w3.org/2000/svg">
<path d="M34.016 70.344C23.2 70.344 14.944 67.336 9.248 61.32C3.616 55.304 0.8 46.76 0.8 35.688C0.8 30.184 1.664 25.288 3.392 21C5.12 16.648 7.488 13 10.496 10.056C13.504 7.048 17.088 4.776 21.248 3.23999C25.408 1.70399 29.92 0.935995 34.784 0.935995C37.6 0.935995 40.16 1.16 42.464 1.608C44.768 1.992 46.784 2.472 48.512 3.048C50.24 3.56 51.68 4.104 52.832 4.68C53.984 5.256 54.816 5.704 55.328 6.024L51.008 18.12C48.96 17.032 46.56 16.104 43.808 15.336C41.12 14.568 38.048 14.184 34.592 14.184C32.288 14.184 30.016 14.568 27.776 15.336C25.6 16.104 23.648 17.352 21.92 19.08C20.256 20.744 18.912 22.92 17.888 25.608C16.864 28.296 16.352 31.56 16.352 35.4C16.352 38.472 16.672 41.352 17.312 44.04C18.016 46.664 19.104 48.936 20.576 50.856C22.112 52.776 24.096 54.312 26.528 55.464C28.96 56.552 31.904 57.096 35.36 57.096C37.536 57.096 39.488 56.968 41.216 56.712C42.944 56.456 44.48 56.168 45.824 55.848C47.168 55.464 48.352 55.048 49.376 54.6C50.4 54.152 51.328 53.736 52.16 53.352L56.288 65.352C54.176 66.632 51.2 67.784 47.36 68.808C43.52 69.832 39.072 70.344 34.016 70.344ZM85.418 1.704C95.402 1.704 103.05 3.496 108.362 7.08C113.674 10.6 116.33 16.104 116.33 23.592C116.33 28.264 115.242 32.072 113.066 35.016C110.954 37.896 107.882 40.168 103.85 41.832C105.194 43.496 106.602 45.416 108.074 47.592C109.546 49.704 110.986 51.944 112.394 54.312C113.866 56.616 115.274 59.048 116.618 61.608C117.962 64.104 119.21 66.568 120.362 69H103.562C102.346 66.824 101.098 64.616 99.818 62.376C98.602 60.136 97.322 57.96 95.978 55.848C94.698 53.736 93.418 51.752 92.138 49.896C90.858 47.976 89.578 46.248 88.298 44.712H80.906V69H65.93V3.432C69.194 2.792 72.554 2.344 76.01 2.088C79.53 1.832 82.666 1.704 85.418 1.704ZM86.282 14.472C85.194 14.472 84.202 14.504 83.306 14.568C82.474 14.632 81.674 14.696 80.906 14.76V32.808H85.13C90.762 32.808 94.794 32.104 97.226 30.696C99.658 29.288 100.874 26.888 100.874 23.496C100.874 20.232 99.626 17.928 97.13 16.584C94.698 15.176 91.082 14.472 86.282 14.472Z" fill="black"/>
</svg>
